<svg version="1.1" id="Livello_1" xmlns="http://www.w3.org/2000/svg" xmlns:xlink="http://www.w3.org/1999/xlink" x="0px" y="0px" viewBox="0 0 705.1 447.9" style="enable-background:new 0 0 705.1 447.9" xml:space="preserve"> <path d="M453.9,255.8c-15.8,2.8-46.5,14.5-69.4,40.8c-24.2,5.3-30.8,6.3-60.5,0.6c-13.3-16.5-43.1-37.2-69.4-40.8
	c-15.7-20.1-21.6-26.6-29.8-53c5.7-17.8,8.8-49-0.4-79.8c7.5-20.7,14.8-36.2,30.5-52.1c18.8-2.9,50.5-19.9,67.2-39.3
	c9-4.6,43.6-6.9,61.5-0.2c12.4,16.6,44.2,35.2,68.5,38.6c12.8,16.3,20.7,25.5,30.4,53.1c-10.4,24.4-6.9,62.8,0.4,79.2
	C476.2,224.8,467.1,240.5,453.9,255.8 M511.7,123.3c-11.9-40.5-32.3-65.6-46.3-78.8c-26.9-2.3-52.9-18.6-67.9-38.7
	c-31.4-9-60.7-6.3-89.6,0c-20.7,25.8-44,36.1-66.8,39.6c-19.8,16.1-41.2,54-45.8,81c11.3,33,7.5,54.2,0.6,75.8
	c6.9,35.2,23.2,56.8,45.6,80.3c31.9,4.5,50.7,18.6,66.9,38.4c35.9,10,61.4,7.2,90.8,0.7c22.7-30.6,48.1-36.4,67.3-40
	c22.6-19.2,40.2-53.1,45.6-79.4C504.8,184.8,499.2,152.8,511.7,123.3"></path> <path d="M247,163.9c0,54.4,40.9,99.4,93.6,105.9v-29.9c-36.3-6.2-64-37.8-64-75.9c0-38,27.8-69.5,64-75.7V58
	C287.9,64.5,247,109.4,247,163.9"></path> <path d="M380.7,148.8V92c24.6,9.2,43.1,30.6,48.4,56.8H380.7L380.7,148.8z M353.7,57.1c-0.6,0-1.3,0.1-1.9,0.1v213.4
	c0.6,0,1.2,0.1,1.9,0.1c9.3,0,18.4-1.3,27-3.6v-89.4h48.5c-4.1,22.6-18,41.8-37.2,53v32.8c40-15.4,68.5-54.2,68.5-99.6
	C460.5,104.9,412.6,57.1,353.7,57.1"></path> <path d="M324.4,376.6h-64.9c-1.7,0-3.1,1.4-3.1,3.1v11.5c0,1.7,1.4,3.1,3.1,3.1H283v50.1c0,1.7,1.4,3.2,3.1,3.2h11.7
	c1.7,0,3.1-1.4,3.1-3.2v-50.1h23.4c1.7,0,3.1-1.4,3.1-3.1v-11.5C327.6,378,326.2,376.6,324.4,376.6"></path> <path d="M409.8,394.4c1.7,0,3.1-1.4,3.1-3.1v-11.5c0-1.7-1.4-3.1-3.1-3.1h-71.3c-1.7,0-3.1,1.4-3.1,3.1v64.8
	c0,1.7,1.4,3.1,3.1,3.1h71.3c1.7,0,3.1-1.4,3.1-3.1V433c0-1.7-1.4-3.1-3.1-3.1h-56.7v-9.3h39.2c1.7,0,3.2-1.4,3.2-3.1V406
	c0-1.7-1.4-3.1-3.2-3.1h-39.2v-8.4H409.8L409.8,394.4z"></path> <path d="M487.5,429.8h-49v-50.1c0-1.7-1.4-3.1-3.2-3.1h-11.5c-1.7,0-3.1,1.4-3.1,3.1v64.8c0,1.7,1.4,3.1,3.1,3.1h63.7
	c1.7,0,3.1-1.4,3.1-3.1v-11.6C490.6,431.2,489.2,429.8,487.5,429.8"></path> <path d="M564.9,429.8h-49v-50.1c0-1.7-1.4-3.1-3.1-3.1h-11.5c-1.7,0-3.1,1.4-3.1,3.1v64.8c0,1.7,1.4,3.1,3.1,3.1h63.7
	c1.7,0,3.1-1.4,3.1-3.1v-11.6C568,431.2,566.6,429.8,564.9,429.8"></path> <path d="M578.8,447.7c-1.7,0-3.2-1.4-3.2-3.1v-64.8c0-1.7,1.4-3.1,3.2-3.1h11.5c1.7,0,3.1,1.4,3.1,3.1v64.8
	c0,1.7-1.4,3.1-3.1,3.1H578.8L578.8,447.7z"></path> <path d="M18.9,429.4c0.4,0.4,1.3,0.5,1.3,0.5l54.3-0.1c1.7,0,3.2,1.5,3.2,3.1v11.5c0,1.7-1.5,3.1-3.2,3.1l-56.3,0.1
	C5.8,447.3,0,439.8,0,430.1v-36c0-9.7,5.4-17.6,17.8-17.6h56.7c1.7,0,3.2,1.4,3.2,3.1l-0.1,11.6c0,1.7-1.5,3.1-3.1,3.1H20.2
	c0,0-1.2,0.3-1.4,0.6c-0.3,0.3-0.6,0.9-0.6,1.5v31.2C18.2,428.5,18.4,428.9,18.9,429.4"></path> <path d="M216.4,420.7l-26.6,0.1c-12.4-0.4-18.2-7.9-18.2-17.6l-0.1-9c0-9.7,5.4-17.6,17.8-17.6h56.7
	c1.7,0,3.1,1.4,3.1,3.1l-0.1,11.6c0,1.7-1.4,3.1-3.1,3.1h-54.2c0,0-1.2,0.3-1.5,0.6c-0.3,0.3-0.6,0.9-0.6,1.5l0.1,4.2
	c0,0.7,0.2,1.2,0.7,1.6c0.4,0.3,1.3,0.5,1.3,0.5l24.7-0.1l14.3,0.1c12.4,0.4,18.2,7.9,18.2,17.6l0.2,9.5c0,9.7-5.4,17.6-17.8,17.6
	h-56.7c-1.7,0-3.1-1.5-3.1-3.1l0.1-11.6c0-1.7,1.5-3.2,3.1-3.2h54.2c0,0,1.2-0.3,1.5-0.7c0.3-0.3,0.6-0.9,0.6-1.4l-0.2-4.8
	c0-0.7-0.2-1.2-0.7-1.6c-0.4-0.3-1.3-0.5-1.3-0.5H216.4L216.4,420.7z"></path> <path d="M102.7,412.1l0-15.3c0-0.6,0.3-1.1,0.7-1.5c0.4-0.3,1.4-0.6,1.4-0.6h39c0,0,1.1,0.1,1.5,0.6
	c0.4,0.4,0.6,0.9,0.5,1.5v15.3H102.7L102.7,412.1z M145.8,376.6h-43.3c-9.7,0-17.2,5.8-17.6,18.2l0.1,50c0,1.7,1.5,3.1,3.1,3.1h11.5
	c1.7,0,3.1-1.5,3.1-3.1l0-14.9h43.1v14.9c0,1.7,1.5,3.1,3.1,3.1h11.5c1.7,0,3.1-1.5,3.1-3.1v-50.4
	C163.7,382,155.5,376.6,145.8,376.6"></path> <path d="M661.8,423.5v-43.8c0-1.7,1.4-3.1,3.1-3.1h11.5c1.7,0,3.1,1.4,3.1,3.1v64.8c0,1.7-1.5,3.1-3.1,3.1h-12.1
	c-4.6,0-6-3-7.8-5.2L619,401v43.5c0,1.7-1.5,3.1-3.1,3.1h-11.5c-1.7,0-3.2-1.5-3.2-3.1v-64.8c0-1.7,1.5-3.1,3.2-3.1H617
	c2.5,0.3,3.8,1.3,6.7,4.6L661.8,423.5L661.8,423.5z"></path> <path d="M690.4,447.7c-1.7,0-3.1-1.4-3.1-3.1v-64.8c0-1.7,1.4-3.1,3.1-3.1H702c1.7,0,3.2,1.4,3.2,3.1v64.8
	c0,1.7-1.5,3.1-3.2,3.1H690.4L690.4,447.7z"></path> </svg>