<?xml version="1.0" standalone="no"?>
<svg xmlns:xlink="http://www.w3.org/1999/xlink" id="wave" style="transform:rotate(0deg); transition: 0.3s" viewBox="0 0 1440 100" version="1.1" xmlns="http://www.w3.org/2000/svg"><defs><linearGradient id="sw-gradient-0" x1="0" x2="0" y1="1" y2="0"><stop stop-color="rgba(255, 255, 255, 1)" offset="0%"/><stop stop-color="rgba(255, 255, 255, 1)" offset="100%"/></linearGradient></defs><path style="transform:translate(0, 0px); opacity:1" fill="url(#sw-gradient-0)" d="M0,20L10,30C20,40,40,60,60,58.3C80,57,100,33,120,26.7C140,20,160,30,180,33.3C200,37,220,33,240,35C260,37,280,43,300,38.3C320,33,340,17,360,13.3C380,10,400,20,420,31.7C440,43,460,57,480,66.7C500,77,520,83,540,76.7C560,70,580,50,600,46.7C620,43,640,57,660,61.7C680,67,700,63,720,58.3C740,53,760,47,780,51.7C800,57,820,73,840,80C860,87,880,83,900,75C920,67,940,53,960,45C980,37,1000,33,1020,31.7C1040,30,1060,30,1080,30C1100,30,1120,30,1140,33.3C1160,37,1180,43,1200,53.3C1220,63,1240,77,1260,71.7C1280,67,1300,43,1320,36.7C1340,30,1360,40,1380,40C1400,40,1420,30,1430,25L1440,20L1440,100L1430,100C1420,100,1400,100,1380,100C1360,100,1340,100,1320,100C1300,100,1280,100,1260,100C1240,100,1220,100,1200,100C1180,100,1160,100,1140,100C1120,100,1100,100,1080,100C1060,100,1040,100,1020,100C1000,100,980,100,960,100C940,100,920,100,900,100C880,100,860,100,840,100C820,100,800,100,780,100C760,100,740,100,720,100C700,100,680,100,660,100C640,100,620,100,600,100C580,100,560,100,540,100C520,100,500,100,480,100C460,100,440,100,420,100C400,100,380,100,360,100C340,100,320,100,300,100C280,100,260,100,240,100C220,100,200,100,180,100C160,100,140,100,120,100C100,100,80,100,60,100C40,100,20,100,10,100L0,100Z"/></svg>